<svg width="32" height="32" viewBox="0 0 32 32" fill="none" xmlns="http://www.w3.org/2000/svg">
  <g transform="translate(-0.5, 4) scale(0.94)">
    <path d="M22.5579 11.9709C22.5579 5.69762 17.3584 0.554688 10.9156 0.554688C10.8591 0.554688 10.8026 0.554688 10.7461 0.554688V6.82794C10.8026 6.82794 10.8591 6.82794 10.9156 6.82794C13.7979 6.82794 16.1716 9.14509 16.1716 11.9709C16.1716 14.7967 13.7979 17.1138 10.9156 17.1138C10.8591 17.1138 10.8026 17.1138 10.7461 17.1138V23.3871C10.8026 23.3871 10.8591 23.3871 10.9156 23.3871C17.3584 23.4436 22.5579 18.3006 22.5579 11.9709Z" fill="white"/>
    <path d="M33.4094 11.9709C33.4094 5.69762 28.21 0.554688 21.7672 0.554688C21.7107 0.554688 21.6542 0.554688 21.5977 0.554688V6.82794C21.6542 6.82794 21.7107 6.82794 21.7672 6.82794C24.6495 6.82794 27.0232 9.14509 27.0232 11.9709C27.0232 14.7967 24.6495 17.1138 21.7672 17.1138C21.7107 17.1138 21.6542 17.1138 21.5977 17.1138V23.3871C21.6542 23.3871 21.7107 23.3871 21.7672 23.3871C28.21 23.4436 33.4094 18.3006 33.4094 11.9709Z" fill="white"/>
    <path d="M6.10961 17.3052C8.99191 17.3052 11.3091 14.988 11.3091 12.1057C11.3091 9.2234 8.99191 6.90625 6.10961 6.90625C3.2273 6.90625 0.910156 9.2234 0.910156 12.1057C0.910156 14.988 3.2273 17.3052 6.10961 17.3052Z" fill="white"/>
  </g>
</svg>
