<svg width="66" height="8" viewBox="0 0 66 8" fill="none" xmlns="http://www.w3.org/2000/svg">
<path d="M0 7.80932V0.179688H6.16022V1.59258H1.75199V3.17502H3.89959C4.80384 3.17502 5.53855 3.34457 5.99067 3.74018C6.49931 4.13579 6.72538 4.70095 6.72538 5.43566C6.72538 6.17036 6.4428 6.79204 5.93416 7.18765C5.42551 7.63977 4.63429 7.80932 3.67353 7.80932C3.61701 7.80932 0 7.80932 0 7.80932ZM1.75199 6.50946H3.50398C3.9561 6.50946 4.2952 6.39643 4.57778 6.22688C4.80384 6.05733 4.91687 5.77475 4.91687 5.43566C4.91687 4.75747 4.46475 4.41837 3.50398 4.41837H1.75199V6.50946Z" fill="white"/>
<path d="M18.4786 2.46741C18.3091 1.95877 17.97 1.56316 17.6309 1.22407C17.2918 0.884971 16.8396 0.602392 16.331 0.376329C15.8224 0.206782 15.3137 0.09375 14.692 0.09375C14.0704 0.09375 13.5617 0.206782 13.0531 0.376329C12.5444 0.545876 12.1488 0.828455 11.7532 1.22407C11.4141 1.56316 11.1316 2.01529 10.9055 2.46741C10.7925 2.69347 10.7359 2.97605 10.6794 3.25863H9.66215V0.263297H7.91016V7.83641H9.66215V4.72804H10.7359C10.7925 5.01062 10.849 5.2932 10.962 5.57578C11.1881 6.08442 11.4706 6.48003 11.8097 6.81913C12.1488 7.15822 12.601 7.4408 13.1096 7.66686C13.6182 7.83641 14.1269 7.94944 14.7486 7.94944C15.3702 7.94944 15.8789 7.83641 16.3875 7.66686C16.8962 7.49731 17.2918 7.21474 17.6874 6.81913C18.0265 6.48003 18.3091 6.0279 18.5351 5.57578C18.7612 5.12365 18.8177 4.5585 18.8177 3.99334C18.8177 3.42818 18.6482 2.91954 18.4786 2.46741ZM16.7831 5.01062C16.6701 5.2932 16.5006 5.57578 16.2745 5.80184C16.0484 6.0279 15.8224 6.19745 15.5398 6.31048C15.2572 6.42351 14.9746 6.48003 14.692 6.48003C14.4095 6.48003 14.0704 6.42351 13.7878 6.31048C13.5052 6.19745 13.2792 6.0279 13.1096 5.80184C12.9401 5.57578 12.7705 5.34972 12.6575 5.01062C12.5444 4.67153 12.4879 4.38895 12.4879 3.99334C12.4879 3.59773 12.5444 3.31515 12.6575 2.97605C12.7705 2.69347 12.9401 2.4109 13.1096 2.18483C13.3357 1.95877 13.5617 1.78922 13.8443 1.67619C14.1269 1.56316 14.4095 1.50664 14.692 1.50664C14.9746 1.50664 15.3137 1.56316 15.5963 1.67619C15.8789 1.78922 16.1049 1.95877 16.331 2.18483C16.5571 2.4109 16.6701 2.63696 16.8396 2.97605C17.0092 3.31515 17.0092 3.59773 17.0092 3.99334C17.0092 4.38895 16.8962 4.72804 16.7831 5.01062Z" fill="white"/>
<path d="M19.8906 7.80932V0.179688H23.1685C23.8467 0.179688 24.4119 0.292719 24.9205 0.518782C25.4292 0.744846 25.7683 1.08394 26.0508 1.47955C26.3334 1.87516 26.4465 2.3838 26.4465 2.94896C26.4465 3.51412 26.3334 4.02276 26.0508 4.41837C25.7683 4.81398 25.3727 5.15308 24.9205 5.37914C24.4119 5.6052 23.8467 5.71823 23.1685 5.71823H21.6426V7.80932H19.8906ZM21.6991 4.30534H23.112C23.6772 4.30534 24.0728 4.19231 24.3554 3.96625C24.6379 3.74018 24.751 3.40109 24.751 3.00548C24.751 2.60987 24.6379 2.27077 24.3554 2.04471C24.0728 1.81865 23.6772 1.70561 23.112 1.70561H21.6991V4.30534Z" fill="white"/>
<path d="M31.5337 7.92783C30.9121 7.92783 30.4034 7.8148 29.8383 7.64525C29.2731 7.47571 28.8775 7.19313 28.4819 6.79752C28.0863 6.45842 27.8037 6.0063 27.6341 5.55417C27.4081 5.04553 27.3516 4.53689 27.3516 3.97173C27.3516 3.40657 27.4646 2.84141 27.6341 2.38929C27.8602 1.93716 28.1428 1.48503 28.4819 1.14594C28.821 0.806846 29.3296 0.524267 29.7817 0.298204C30.2904 0.0721408 30.8555 0.015625 31.4207 0.015625C31.9859 0.015625 32.551 0.128657 33.0597 0.298204C33.5683 0.467751 34.0204 0.75033 34.3595 1.14594C34.6986 1.54155 35.0377 1.93716 35.2073 2.38929C35.4333 2.89793 35.4898 3.40657 35.4898 3.97173C35.4898 4.53689 35.6029 5.10204 35.3768 5.55417C35.1507 6.06281 34.8682 6.45842 34.5291 6.79752C34.19 7.13661 33.6813 7.41919 33.2292 7.64525C32.664 7.87132 32.0989 7.92783 31.5337 7.92783ZM31.5337 6.45842C31.8728 6.45842 32.2119 6.40191 32.4945 6.28887C32.7771 6.17584 33.0597 6.0063 33.2292 5.78023C33.4553 5.55417 33.6248 5.27159 33.7378 4.98901C33.8509 4.70643 33.9074 4.36734 33.9074 3.97173C33.9074 3.57612 33.8509 3.29354 33.7378 2.95444C33.6248 2.61535 33.4553 2.38929 33.2292 2.16322C33.0031 1.93716 32.7771 1.76761 32.4945 1.65458C32.2119 1.54155 31.8728 1.48504 31.5337 1.48504C31.1946 1.48504 30.8555 1.54155 30.573 1.65458C30.2904 1.76761 30.0078 1.93716 29.8383 2.16322C29.6687 2.38929 29.3861 2.72838 29.2731 3.01096C29.1601 3.29354 29.1036 3.63263 29.1036 4.02824C29.1036 4.42385 29.1601 4.70643 29.2731 5.04553C29.3861 5.38462 29.5557 5.61069 29.7817 5.83675C30.0078 6.06281 30.2339 6.23236 30.5164 6.34539C30.8555 6.40191 31.1381 6.45842 31.5337 6.45842Z" fill="white"/>
<path d="M40.6392 7.80932V1.59258H39.1133V0.179688H42.3912V7.80932C42.4477 7.80932 40.6957 7.80932 40.6392 7.80932Z" fill="white"/>
<path d="M50.4746 4.75747H49.2313V3.34457H47.5923V4.75747H45.5578L48.8357 0.179688H47.0272L43.4102 5.04005V6.22688H47.5358V7.80932H49.2313V6.22688H50.4746V4.75747Z" fill="white"/>
<path d="M58.0879 4.75747H56.8446V3.34457H55.2056V4.75747H53.1145L56.449 0.179688H54.6404L51.0234 5.04005V6.22688H55.1491V7.80932H56.8446V6.22688H58.0879V4.75747Z" fill="white"/>
<path d="M61.9438 7.92783C61.3221 7.92783 60.757 7.75828 60.2483 7.47571C59.7397 7.19313 59.3441 6.741 59.0615 6.11933C58.7789 5.55417 58.6094 4.81947 58.6094 3.97173C58.6094 3.12399 58.7224 2.38929 59.0615 1.82413C59.3441 1.25897 59.7397 0.806846 60.2483 0.467751C60.757 0.128657 61.3221 0.015625 61.9438 0.015625C62.5655 0.015625 63.1306 0.185172 63.6393 0.467751C64.1479 0.806846 64.5435 1.20246 64.8261 1.82413C65.1087 2.4458 65.2782 3.12399 65.2782 3.97173C65.2782 4.81947 65.1652 5.55417 64.8261 6.11933C64.5435 6.68449 64.1479 7.13661 63.6393 7.47571C63.1306 7.8148 62.5655 7.92783 61.9438 7.92783ZM61.9438 6.45842C62.2264 6.45842 62.509 6.40191 62.735 6.17584C62.9611 6.0063 63.1306 5.72372 63.2437 5.38462C63.3567 5.04553 63.4132 4.53689 63.4132 3.97173C63.4132 3.40657 63.3567 2.89793 63.2437 2.55883C63.1306 2.21974 62.9611 1.93716 62.735 1.76761C62.509 1.59807 62.2829 1.54155 61.9438 1.54155C61.6047 1.54155 61.4352 1.65458 61.2091 1.76761C60.983 1.88064 60.8135 2.21974 60.7005 2.55883C60.5874 2.89793 60.5309 3.40657 60.5309 3.97173C60.5309 4.53689 60.5874 5.04553 60.7005 5.38462C60.8135 5.72372 61.0396 6.0063 61.2091 6.17584C61.3787 6.40191 61.6612 6.45842 61.9438 6.45842Z" fill="white"/>
</svg>
